<svg id="Layer_1" data-name="Layer 1" xmlns="http://www.w3.org/2000/svg" viewBox="0 0 119.08 65.67"><defs><style>.cls-1{fill:#cd06ff;}</style></defs><path class="cls-1" d="M32.73,39.45v-10H55.64V49.92A47.18,47.18,0,0,1,44,56a39.65,39.65,0,0,1-12,1.61c-5.7,0-10.34-1-13.95-2.92a20,20,0,0,1-8.34-8.67,28.57,28.57,0,0,1-3-13.22A27.51,27.51,0,0,1,10,19.19a20.9,20.9,0,0,1,9.5-8.84Q24.39,8,32.63,8c5.3,0,9.27.48,11.88,1.44A15.25,15.25,0,0,1,51.06,14,19.49,19.49,0,0,1,55,21.61L40.68,24.16a7.72,7.72,0,0,0-3-4.16,9.25,9.25,0,0,0-5.37-1.44A9.75,9.75,0,0,0,24.51,22q-2.88,3.38-2.88,10.7c0,5.2,1,8.9,2.92,11.13a10.32,10.32,0,0,0,8.18,3.34,15.57,15.57,0,0,0,4.75-.72A25.58,25.58,0,0,0,42.65,44V39.45Z"/><path class="cls-1" d="M62.58,32.87q0-11.76,6.55-18.3T87.36,8q12,0,18.46,6.45t6.49,18q0,8.4-2.85,13.81a20.22,20.22,0,0,1-8.19,8.38q-5.33,3-13.32,3T74.5,55.06a20.19,20.19,0,0,1-8.61-8.18Q62.58,41.29,62.58,32.87Zm14.83.06q0,7.27,2.69,10.45a9.19,9.19,0,0,0,7.36,3.17,9.15,9.15,0,0,0,7.4-3.11q2.61-3.11,2.62-11.16,0-6.78-2.75-9.89a9.29,9.29,0,0,0-7.4-3.14,9,9,0,0,0-7.2,3.18C78.32,24.54,77.41,28.05,77.41,32.93Z"/></svg>