<svg width="21" height="19" viewBox="0 0 21 19" fill="none" xmlns="http://www.w3.org/2000/svg">
<path d="M0.181641 0.966797H9.52734V8.16406C9.52734 10.8138 8.97591 12.9121 7.87305 14.459C6.77018 15.9915 4.88672 17.3379 2.22266 18.498L0.181641 14.6738C1.8431 13.9004 2.98177 13.1341 3.59766 12.375C4.22786 11.6016 4.57878 10.6921 4.65039 9.64648H0.181641V0.966797ZM11.0742 0.966797H20.4199V8.16406C20.4199 10.8138 19.8685 12.9121 18.7656 14.459C17.6628 15.9915 15.7793 17.3379 13.1152 18.498L11.0742 14.6738C12.7357 13.9004 13.8743 13.1341 14.4902 12.375C15.1204 11.6016 15.4714 10.6921 15.543 9.64648H11.0742V0.966797Z" fill="#6C0287"/>
</svg>
