<?xml version="1.0" standalone="no"?>
<!DOCTYPE svg PUBLIC "-//W3C//DTD SVG 20010904//EN"
 "http://www.w3.org/TR/2001/REC-SVG-20010904/DTD/svg10.dtd">
<svg version="1.0" xmlns="http://www.w3.org/2000/svg"
 width="952.000000pt" height="952.000000pt" viewBox="0 0 952.000000 952.000000"
 preserveAspectRatio="xMidYMid meet">
<metadata>
Created by potrace 1.14, written by Peter Selinger 2001-2017
</metadata>
<g transform="translate(0.000000,952.000000) scale(0.100000,-0.100000)"
fill="#000000" stroke="none">
<path d="M2359 6735 c-2 -2 -40 -6 -84 -9 -44 -3 -91 -8 -105 -10 -14 -2 -52
-7 -85 -11 -33 -4 -63 -9 -66 -11 -4 -2 -24 -6 -45 -9 -22 -4 -47 -8 -56 -11
-9 -3 -25 -7 -35 -9 -266 -58 -558 -216 -769 -415 -85 -81 -254 -283 -254
-304 0 -3 -13 -25 -30 -49 -16 -24 -50 -88 -75 -143 -25 -54 -52 -112 -60
-127 -8 -16 -15 -37 -15 -48 0 -10 -5 -19 -10 -19 -6 0 -9 -3 -8 -7 1 -5 -9
-42 -21 -83 -29 -91 -61 -216 -65 -250 -5 -37 -16 -103 -21 -130 -9 -43 -19
-211 -19 -320 0 -110 12 -328 18 -339 2 -3 7 -28 10 -56 6 -56 14 -101 22
-127 3 -10 7 -28 10 -40 8 -45 13 -64 39 -148 14 -47 27 -89 29 -95 2 -5 7
-19 11 -30 5 -11 17 -42 27 -68 23 -61 109 -240 119 -247 3 -3 9 -15 13 -27 4
-13 12 -23 17 -23 5 0 9 -5 9 -10 0 -28 146 -208 247 -305 168 -160 363 -278
588 -354 124 -42 306 -85 410 -96 33 -4 69 -9 80 -11 48 -9 255 -18 415 -18
186 1 331 10 460 28 25 4 59 8 75 11 17 2 62 10 100 19 39 8 83 17 97 20 31 5
177 45 198 53 8 4 17 7 20 8 3 1 14 5 25 10 11 4 49 19 85 32 89 35 175 74
305 140 123 62 356 198 385 226 11 9 22 17 25 17 4 0 21 11 40 26 l33 25 -1
817 -2 817 -912 0 c-906 0 -913 0 -914 -20 -5 -94 -3 -762 2 -770 5 -6 148
-10 398 -9 l391 1 0 -183 0 -182 -67 -38 c-193 -109 -400 -185 -538 -200 -27
-3 -56 -7 -63 -10 -19 -6 -251 -6 -282 1 -56 11 -95 19 -102 20 -3 0 -10 3
-14 7 -4 5 -16 8 -26 8 -29 0 -164 69 -231 118 -109 79 -166 147 -224 264 -19
40 -36 77 -37 83 -1 5 -5 15 -8 21 -8 11 -44 152 -53 199 -2 17 -7 39 -9 50
-13 68 -21 195 -21 370 0 209 6 295 30 420 4 22 9 47 10 56 2 9 17 58 34 109
67 200 165 328 331 435 55 35 167 88 184 87 3 -1 20 4 38 9 74 22 276 31 372
16 229 -36 428 -191 501 -390 18 -47 19 -48 52 -42 18 3 48 8 66 10 17 3 43 7
57 10 14 4 39 8 55 11 39 6 124 22 151 28 12 2 39 7 60 10 22 4 77 14 124 22
46 9 96 17 111 19 14 2 64 11 110 20 46 9 96 18 111 20 25 4 99 17 173 31 17
3 41 7 55 8 14 2 26 11 28 20 6 29 -58 197 -121 319 -33 64 -65 117 -69 117
-4 0 -8 5 -8 11 0 34 -191 250 -280 317 -19 15 -37 29 -40 32 -3 3 -18 14 -35
25 -129 85 -345 176 -448 189 -18 2 -39 7 -47 10 -8 3 -31 8 -50 11 -19 3 -51
7 -70 10 -19 3 -62 7 -95 10 -33 2 -60 5 -60 6 0 8 -698 23 -706 14z"/>
<path d="M6748 6735 c-2 -2 -28 -6 -58 -9 -74 -9 -180 -24 -220 -32 -55 -10
-166 -38 -225 -56 -38 -12 -72 -22 -75 -23 -3 -1 -14 -5 -25 -10 -11 -4 -41
-16 -67 -26 -109 -42 -339 -173 -390 -222 -7 -7 -26 -23 -43 -35 -105 -81
-292 -290 -326 -366 -7 -14 -15 -26 -19 -26 -4 0 -23 -33 -44 -72 -21 -40 -41
-80 -46 -88 -32 -55 -112 -273 -124 -336 -2 -11 -9 -39 -16 -64 -14 -52 -14
-51 -30 -150 -6 -41 -14 -86 -16 -100 -28 -160 -22 -604 11 -805 2 -11 6 -38
9 -60 4 -22 9 -51 13 -65 3 -14 7 -27 8 -30 1 -4 14 -67 20 -95 21 -98 130
-347 207 -473 99 -163 266 -350 403 -450 39 -29 75 -55 80 -59 50 -39 247
-140 320 -163 22 -7 46 -17 53 -23 6 -5 12 -7 12 -3 0 3 17 -1 38 -9 20 -8 48
-16 62 -19 14 -2 32 -7 40 -10 8 -3 26 -8 40 -11 93 -19 171 -34 210 -39 25
-3 54 -8 66 -10 134 -26 578 -27 794 -1 102 12 369 72 388 87 6 6 12 7 12 3 0
-4 6 -3 13 2 6 6 30 16 51 23 22 7 60 22 85 33 25 11 48 19 50 18 2 -2 7 1 10
6 3 4 24 17 46 28 63 31 174 104 250 163 64 50 223 206 269 263 34 43 156 233
156 243 0 5 6 17 13 25 16 19 75 158 107 251 22 64 26 81 36 130 3 14 8 34 11
45 13 38 31 135 39 200 2 21 7 51 9 65 26 132 26 624 0 785 -10 58 -15 90 -20
115 -3 14 -8 39 -11 55 -2 17 -10 48 -16 70 -5 22 -12 47 -13 55 -2 8 -4 15
-5 15 -1 0 -3 7 -5 16 -5 25 -53 162 -75 213 -11 26 -19 47 -19 49 3 9 -133
233 -178 294 -57 78 -211 238 -271 283 -18 14 -45 35 -60 48 -15 13 -40 30
-57 39 -16 9 -32 19 -35 23 -3 4 -43 28 -90 52 -73 39 -114 58 -235 109 -40
17 -170 55 -215 64 -8 2 -33 8 -55 13 -22 6 -56 13 -75 16 -19 3 -44 7 -55 10
-11 2 -47 7 -80 11 -32 4 -68 9 -80 12 -22 6 -551 13 -557 8z m257 -895 c-3 5
0 8 7 6 7 -3 40 -7 73 -10 80 -8 109 -14 158 -32 23 -8 47 -16 54 -18 6 -1 45
-20 85 -42 98 -53 222 -176 272 -269 40 -75 91 -216 100 -279 4 -21 8 -41 10
-45 3 -4 8 -34 11 -67 4 -32 9 -75 11 -94 11 -93 3 -456 -11 -532 -3 -12 -7
-44 -10 -72 -3 -28 -8 -59 -11 -68 -3 -9 -7 -25 -9 -35 -23 -112 -70 -241
-107 -295 -10 -14 -18 -29 -18 -33 0 -3 -6 -12 -13 -20 -7 -7 -24 -26 -38 -41
-83 -99 -250 -195 -381 -220 -66 -13 -85 -14 -184 -15 -122 -1 -178 6 -263 34
-197 62 -348 194 -437 380 -34 73 -80 234 -90 317 -3 25 -8 59 -11 75 -4 17
-7 138 -7 270 -1 212 3 296 18 371 2 12 7 39 10 59 18 110 94 314 131 352 8 8
15 18 15 23 0 5 33 43 74 84 128 128 273 197 446 213 36 3 67 7 69 9 1 1 14
-1 28 -7 16 -6 22 -5 18 1z"/>
</g>
</svg>
